<svg width="600" height="600" viewBox="0 0 600 600" fill="none" xmlns="http://www.w3.org/2000/svg">
<rect width="600" height="600" rx="40" fill="black"/>
<circle cx="300" cy="300" r="250" fill="#EB5757"/>
<path d="M500 300C500 260.444 488.27 221.776 466.294 188.886C444.318 155.996 413.082 130.362 376.537 115.224C339.991 100.087 299.778 96.1259 260.982 103.843C222.186 111.56 186.549 130.608 158.579 158.579C130.608 186.549 111.56 222.186 103.843 260.982C96.1259 299.778 100.087 339.991 115.224 376.537C130.362 413.082 155.996 444.318 188.886 466.294C221.776 488.27 260.444 500 300 500L300 440C272.311 440 245.243 431.789 222.22 416.406C199.197 401.022 181.253 379.157 170.657 353.576C160.061 327.994 157.288 299.845 162.69 272.687C168.092 245.53 181.426 220.584 201.005 201.005C220.584 181.426 245.53 168.092 272.687 162.69C299.845 157.288 327.994 160.061 353.576 170.657C379.157 181.253 401.022 199.197 416.406 222.22C431.789 245.243 440 272.311 440 300H500Z" fill="white"/>
<path d="M400 300C400 355.228 355.228 400 300 400C244.772 400 200 355.228 200 300C200 244.772 244.772 200 300 200C355.228 200 400 244.772 400 300ZM220 300C220 344.183 255.817 380 300 380C344.183 380 380 344.183 380 300C380 255.817 344.183 220 300 220C255.817 220 220 255.817 220 300Z" fill="white"/>
<circle cx="300" cy="300" r="50" fill="black"/>
<circle cx="300" cy="300" r="25" fill="white"/>
<circle cx="299.5" cy="299.5" r="7.5" fill="black"/>
<circle cx="299.5" cy="299.5" r="2.5" fill="white"/>
</svg>
